<?xml version="1.0" encoding="UTF-8" standalone="no"?>
<svg
   xmlns:dc="http://purl.org/dc/elements/1.1/"
   xmlns:cc="http://creativecommons.org/ns#"
   xmlns:rdf="http://www.w3.org/1999/02/22-rdf-syntax-ns#"
   xmlns:svg="http://www.w3.org/2000/svg"
   xmlns="http://www.w3.org/2000/svg"
   xmlns:sodipodi="http://sodipodi.sourceforge.net/DTD/sodipodi-0.dtd"
   xmlns:inkscape="http://www.inkscape.org/namespaces/inkscape"
   version="1.0"
   width="200.000000pt"
   height="320.000000pt"
   viewBox="0 0 200.000000 320.000000"
   preserveAspectRatio="xMidYMid meet"
   id="svg444"
   sodipodi:docname="bishop.svg"
   inkscape:version="1.0.1 (c497b03c, 2020-09-10)">
  <defs
     id="defs448" />
  <sodipodi:namedview
     pagecolor="#ffffff"
     bordercolor="#666666"
     borderopacity="1"
     objecttolerance="10"
     gridtolerance="10"
     guidetolerance="10"
     inkscape:pageopacity="0"
     inkscape:pageshadow="2"
     inkscape:window-width="1792"
     inkscape:window-height="1201"
     id="namedview446"
     showgrid="false"
     inkscape:zoom="0.50079739"
     inkscape:cx="-102.65151"
     inkscape:cy="473.84725"
     inkscape:window-x="883"
     inkscape:window-y="186"
     inkscape:window-maximized="0"
     inkscape:current-layer="g442" />
  <metadata
     id="metadata424">
Created by potrace 1.15, written by Peter Selinger 2001-2017
<rdf:RDF>
  <cc:Work
     rdf:about="">
    <dc:format>image/svg+xml</dc:format>
    <dc:type
       rdf:resource="http://purl.org/dc/dcmitype/StillImage" />
  </cc:Work>
</rdf:RDF>
</metadata>
  <g
     transform="translate(0.000000,640.000000) scale(0.100000,-0.100000)"
     fill="#000000"
     stroke="none"
     id="g442">
    <path
       d="m 710.54246,6252.5437 c -11,-14 -10,-19 10,-35 13,-11 29,-19 37,-19 39,0 4,-42 -138,-163 -77,-66 -103,-103 -118,-170 -15,-70 2,-125 61,-192 l 48,-56 -16,-34 c -15,-32 -15,-36 0,-53 20,-22 34,-131 20,-156 -5,-9 -25,-24 -44,-34 -31,-15 -34,-21 -34,-61 0,-41 -2,-45 -35,-56 -26,-9 -36,-18 -38,-37 -4,-33 18,-50 86,-63 l 57,-12 3,-181 c 3,-217 -12,-332 -63,-489 -36,-113 -107,-241 -183,-331 -69,-82 -72,-89 -72,-192 0,-78 -4,-100 -20,-125 -20,-30 -26,-80 -12,-102 11,-17 110,-30 332,-44 276,-17 766.00004,2 821.00004,32 24,12 26,86 4,115 -10,13 -14,45 -15,107 0,104 -9,129 -82,220 -66,82 -137,215 -172,322 -45,136 -56,229 -56,456 0,236 -10,209 85,224 60,10 77,22 73,53 -2,21 -11,30 -38,38 -33,11 -35,14 -40,65 -5,50 -7,54 -38,63 -22,6 -34,17 -38,33 -10,40 2,122 21,143 16,18 17,24 5,60 l -13,40 45,48 c 54,57 73,107 65,173 -9,76 -39,120 -151,224 -57,53 -107.00004,103 -110.00004,111 -4,9 7,19 29,28 37.00004,16 48.00004,49 19.00004,60 -9.00004,3 -75.00004,6 -149.00004,6 -110,0 -135,-3 -146,-16 z"
       id="path434" />
  </g>
</svg>
