<?xml version="1.0" encoding="UTF-8" standalone="no"?>
<svg
   xmlns:dc="http://purl.org/dc/elements/1.1/"
   xmlns:cc="http://creativecommons.org/ns#"
   xmlns:rdf="http://www.w3.org/1999/02/22-rdf-syntax-ns#"
   xmlns:svg="http://www.w3.org/2000/svg"
   xmlns="http://www.w3.org/2000/svg"
   xmlns:sodipodi="http://sodipodi.sourceforge.net/DTD/sodipodi-0.dtd"
   xmlns:inkscape="http://www.inkscape.org/namespaces/inkscape"
   version="1.0"
   width="400.000000pt"
   height="640.000000pt"
   viewBox="0 0 400.000000 640.000000"
   preserveAspectRatio="xMidYMid meet"
   id="svg206"
   sodipodi:docname="knight.svg"
   inkscape:version="1.0.1 (c497b03c, 2020-09-10)">
  <defs
     id="defs210" />
  <sodipodi:namedview
     pagecolor="#ffffff"
     bordercolor="#666666"
     borderopacity="1"
     objecttolerance="10"
     gridtolerance="10"
     guidetolerance="10"
     inkscape:pageopacity="0"
     inkscape:pageshadow="2"
     inkscape:window-width="2109"
     inkscape:window-height="1086"
     id="namedview208"
     showgrid="false"
     inkscape:zoom="0.57403075"
     inkscape:cx="-266.01455"
     inkscape:cy="287.95565"
     inkscape:window-x="662"
     inkscape:window-y="341"
     inkscape:window-maximized="0"
     inkscape:current-layer="g204"
     inkscape:document-rotation="0" />
  <metadata
     id="metadata190">
Created by potrace 1.15, written by Peter Selinger 2001-2017
<rdf:RDF>
  <cc:Work
     rdf:about="">
    <dc:format>image/svg+xml</dc:format>
    <dc:type
       rdf:resource="http://purl.org/dc/dcmitype/StillImage" />
    <dc:title />
  </cc:Work>
</rdf:RDF>
</metadata>
  <g
     transform="translate(0.000000,640.000000) scale(0.100000,-0.100000)"
     fill="#FF4433"
     id="g204">
    <path
       d="M 1156.2489,6185.4804 C 959.79919,6142.774 732.60083,6096.651 655.7292,6079.5684 L 512.23551,6050.528 315.7858,5563.6744 121.04435,5076.8208 155.20952,4914.5362 C 174.00036,4825.7068 259.41327,4417.433 344.82619,4009.1593 430.23911,3600.8856 519.06854,3180.654 541.2759,3074.742 l 42.70646,-191.3249 -61.4973,-312.6113 c -32.45691,-172.5341 -73.45511,-380.9416 -90.5377,-466.3545 -20.4991,-99.079 -25.62387,-160.5763 -13.66606,-174.2424 8.54129,-11.9578 66.62207,-52.956 131.53589,-92.2459 l 114.45331,-71.7469 71.74685,-206.6992 c 39.28994,-114.4533 70.03859,-211.8241 70.03859,-218.6571 0,-6.833 -93.95421,-75.1634 -208.40752,-152.035 -116.16156,-76.8716 -211.82403,-141.7854 -215.24055,-143.4937 -1.70826,-1.7082 40.9982,-85.4129 99.07899,-186.20014 56.37252,-99.07898 102.4955,-187.90842 102.4955,-198.15797 0,-8.54129 -40.9982,-76.87162 -92.24595,-150.32673 -51.24775,-75.16336 -97.37073,-152.03499 -102.4955,-169.11757 -6.83304,-18.79084 5.12477,-68.33033 23.91561,-111.03679 l 34.16517,-78.57989 1011.28901,-11.9578 c 556.8922,-6.83304 1194.0726,-8.5413 1414.4379,-5.12478 l 401.4407,5.12478 218.6571,83.70465 220.3653,83.70466 -163.9928,163.9928 c -90.5377,90.53769 -163.9928,170.82583 -163.9928,177.65887 0,8.54129 46.123,85.41291 100.7872,170.82583 56.3726,87.12117 104.2038,165.70106 107.6203,175.95061 3.4165,10.24957 -78.5799,90.53767 -181.0754,177.65887 l -184.4919,160.5763 10.2496,85.4129 c 6.833,47.8312 17.0826,136.6607 25.6238,198.158 76.8717,555.1839 76.8717,565.4335 52.9561,796.0483 l -22.2074,220.3654 -201.5745,401.4407 -201.5745,401.4407 -317.736,384.3581 c -175.9506,211.824 -326.2774,392.8994 -334.8186,404.8572 -11.9579,13.6661 47.8312,58.0808 203.2827,155.4515 l 218.6571,134.9524 111.0368,-22.2073 c 59.789,-13.6661 148.6184,-32.4569 194.7414,-40.9982 47.8312,-10.2496 97.3707,-22.2074 112.745,-25.6239 22.2074,-6.833 66.6221,56.3725 189.6167,263.0718 l 162.2846,273.3213 -32.4569,193.0332 c -18.7909,105.912 -35.8735,193.0332 -37.5817,194.7414 0,0 -63.2056,37.5817 -138.369,83.7047 l -136.6606,81.9964 -384.3581,56.3725 c -211.8241,30.7487 -430.4811,63.2056 -486.8537,73.4551 -58.0807,8.5413 -210.1157,63.2056 -350.1929,126.4112 -136.6607,59.789 -261.3636,114.4533 -280.1544,119.578 -22.2074,8.5413 -29.0404,23.9157 -22.2074,51.2478 5.1248,20.4991 15.3744,100.7872 22.2074,179.3671 11.9578,140.0772 11.9578,140.0772 -29.0404,138.3689 -22.2074,-1.7082 -201.5745,-35.8734 -399.7325,-76.8716 z"
       id="path198"
       fill="#22333B" />
  </g>
</svg>
